<svg width="709" height="328" viewBox="0 0 709 328" fill="none" xmlns="http://www.w3.org/2000/svg">
<rect width="316" height="316" transform="translate(0.835938 0.539062)" fill="white"/>
<path fill-rule="evenodd" clip-rule="evenodd" d="M201.754 138.834C206.955 135.832 212.8 134.37 219.185 134.37C224.01 134.37 229.147 134.274 233.774 134.274C237.874 134.274 241.198 130.964 241.198 126.882V114.974C241.198 111.321 244.229 108.36 247.969 108.36H256.675C260.415 108.36 263.446 111.321 263.446 114.974C263.445 126.875 263.446 138.775 263.446 150.676C263.446 154.437 260.627 157.541 256.978 158.008H220.856C218.906 158.008 217.24 158.484 215.759 159.4C214.19 160.371 212.989 161.605 212.103 163.132C211.304 164.68 210.905 166.322 210.905 168.113C210.905 170.015 211.309 171.693 212.085 173.21C212.966 174.646 214.119 175.84 215.585 176.81C217.059 177.63 218.737 178.067 220.704 178.067H231.039C237.981 178.067 244.179 179.409 249.49 182.263C254.82 185.073 258.991 189.005 261.892 194.046C264.895 199.09 266.348 204.814 266.348 211.101C266.348 218.305 264.88 224.89 261.789 230.45C258.839 235.836 254.719 240.093 249.465 243.146L249.453 243.152L249.442 243.159C244.264 246.121 238.449 247.562 232.097 247.562H182.946C178.811 247.562 175.419 244.237 175.419 240.088V231.616C175.419 227.467 178.811 224.142 182.946 224.142H229.829C231.785 224.142 233.66 223.689 235.319 222.644C237.007 221.58 238.254 220.258 239.134 218.66L239.148 218.634L239.163 218.609C240.161 216.86 240.622 215.118 240.622 213.331C240.622 211.234 240.158 209.436 239.285 207.852C237.454 204.528 233.876 202.668 230.132 202.668L220.248 202.767C213.734 202.767 207.752 201.439 202.386 198.701L202.341 198.679L202.297 198.655C197.053 195.807 192.854 191.848 189.762 186.814C186.599 181.665 185.093 175.684 185.093 169.023C185.093 162.392 186.535 156.404 189.549 151.185C192.513 145.952 196.594 141.813 201.754 138.834Z" fill="url(#paint0_linear_1_111)"/>
<path fill-rule="evenodd" clip-rule="evenodd" d="M204.033 82.35H52.9743C48.7362 82.35 45.7971 85.9515 45.7971 89.7603V98.0598C45.7971 101.869 48.7362 105.47 52.9743 105.47C67.7445 105.47 82.5152 105.471 97.285 105.471C101.384 105.471 104.708 108.78 104.708 112.863C104.708 146.939 104.77 181.016 104.804 215.093C104.804 221.033 106.074 226.54 108.676 231.539L108.691 231.569L108.707 231.598C111.408 236.579 115.166 240.605 119.951 243.613L119.979 243.631L120.008 243.649C124.891 246.605 130.512 248.026 136.726 248.043L144.018 248.043C147.47 248.043 150.269 245.343 150.269 242.012V230.955C150.269 227.624 147.47 224.854 144.018 224.854H136.982C134.805 224.854 133.225 224.083 131.923 222.689C130.522 221.188 129.831 219.459 129.831 217.291C129.874 182.513 129.955 147.736 129.955 112.958C129.955 108.876 133.279 105.566 137.378 105.566C159.456 105.566 181.838 105.47 204.033 105.47C208.271 105.47 211.21 101.869 211.21 98.0598V89.7603C211.21 85.9515 208.271 82.35 204.033 82.35Z" fill="url(#paint1_linear_1_111)"/>
<defs>
<linearGradient id="paint0_linear_1_111" x1="213.629" y1="108.36" x2="261.155" y2="252.977" gradientUnits="userSpaceOnUse">
<stop offset="0.0653878" stop-color="#96B8FD"/>
<stop offset="0.366472" stop-color="#1249D8"/>
<stop offset="0.69" stop-color="#1249D8"/>
<stop offset="1" stop-color="#3DE8FF"/>
</linearGradient>
<linearGradient id="paint1_linear_1_111" x1="45.7971" y1="86.685" x2="211.194" y2="105.139" gradientUnits="userSpaceOnUse">
<stop offset="0.055" stop-color="#63D0FF"/>
<stop offset="0.468184" stop-color="#1249D8"/>
<stop offset="0.676929" stop-color="#1249D8"/>
<stop offset="0.955" stop-color="#FF86B9"/>
</linearGradient>
</defs>
</svg>
